<mxfile host="app.diagrams.net" modified="2023-07-13T09:25:57.223Z" agent="Mozilla/5.0 (Windows NT 10.0; Win64; x64) AppleWebKit/537.36 (KHTML, like Gecko) Chrome/114.0.0.0 Safari/537.36" etag="ySWFvINWjPSABGbalH1v" version="21.6.1" type="device">
  <diagram name="Page-1" id="b1xjALjLZj8y4c9qPwzK">
    <mxGraphModel dx="2022" dy="1093" grid="1" gridSize="10" guides="1" tooltips="1" connect="1" arrows="1" fold="1" page="1" pageScale="1" pageWidth="827" pageHeight="1169" math="0" shadow="0">
      <root>
        <mxCell id="0" />
        <mxCell id="1" parent="0" />
        <mxCell id="r2zoSRR9rw4zCEvh-puy-1" value="&lt;font style=&quot;font-size: 32px;&quot;&gt;&lt;b&gt;Login&lt;/b&gt;&lt;/font&gt;" style="rounded=0;whiteSpace=wrap;html=1;strokeWidth=3;" vertex="1" parent="1">
          <mxGeometry x="413" y="110" width="320" height="110" as="geometry" />
        </mxCell>
        <mxCell id="r2zoSRR9rw4zCEvh-puy-2" value="&lt;font style=&quot;font-size: 32px;&quot;&gt;&lt;b&gt;Admin&lt;/b&gt;&lt;/font&gt;" style="shape=umlActor;verticalLabelPosition=bottom;verticalAlign=top;html=1;outlineConnect=0;strokeWidth=3;" vertex="1" parent="1">
          <mxGeometry x="180" y="120" width="30" height="60" as="geometry" />
        </mxCell>
      </root>
    </mxGraphModel>
  </diagram>
</mxfile>
